<svg xmlns="http://www.w3.org/2000/svg" xmlns:xlink="http://www.w3.org/1999/xlink" aria-hidden="true" overflow="hidden" style="position:absolute;width:0;height:0">
  <defs>
    <symbol id="icon-search" viewBox="0 0 32 32">
      <path stroke-linecap="round" stroke-linejoin="round" stroke-width="2.667" d="M15.69 27.673c6.619 0 11.985-5.366 11.985-11.985S22.309 3.703 15.69 3.703 3.705 9.069 3.705 15.688 9.071 27.673 15.69 27.673m8.336-3.026 4.699 4.686"/>
    </symbol>
    <symbol id="icon-deal" viewBox="0 0 32 32">
      <path d="M33.368 10.671a.54.54 0 0 0-.76 0l-3.11 3.11-8.331-8.507 3.022-3.022a.53.53 0 0 0 .158-.381.537.537 0 0 0-.539-.539.54.54 0 0 0-.381.158l-4.108 4.108a2.68 2.68 0 0 0-.78 2.069h-.72a3.8 3.8 0 0 0-2.843 1.27l-.104.117a7.75 7.75 0 0 0-3.179-.815 2.69 2.69 0 0 0-.683-2.642L6.902 1.489a.537.537 0 0 0-.761.761l3.067 3.067-8.331 8.507-3.155-3.155a.537.537 0 0 0-.761.761l3.445 3.445q.069.119.189.189l.474.474a2.7 2.7 0 0 0 2.642.683q.02.55.118 1.091c-.25.115-.478.274-.673.469l-1.181 1.181a2.33 2.33 0 0 0 1.865 3.969 2.33 2.33 0 0 0 1.378 2.348 2.3 2.3 0 0 0 1.157.188 2.33 2.33 0 0 0 2.535 2.537 2.331 2.331 0 0 0 3.968 1.863l.777-.777.777.777a2.33 2.33 0 0 0 3.969-1.863q.107.01.215.01a2.33 2.33 0 0 0 2.321-2.546q.107.01.215.01a2.33 2.33 0 0 0 2.321-2.546q.107.01.215.01a2.331 2.331 0 0 0 1.649-3.979l-.652-.652a7.9 7.9 0 0 0 1.911-2.095 2.69 2.69 0 0 0 2.665-.677l4.108-4.108a.537.537 0 0 0 0-.76zM1.829 14.779l-.192-.192L9.968 6.08l.28.28a1.616 1.616 0 0 1 0 2.282l-6.137 6.137a1.616 1.616 0 0 1-2.282 0m1.794 7.088a1.26 1.26 0 0 1-1.159-.774 1.26 1.26 0 0 1 .272-1.368l1.181-1.181q.177-.176.407-.273c.23-.097.316-.096.481-.096a1.26 1.26 0 0 1 .889.367 1.25 1.25 0 0 1 .367.889 1.26 1.26 0 0 1-.369.888L4.511 21.5a1.25 1.25 0 0 1-.888.368zm2.536 2.535a1.254 1.254 0 0 1-1.23-1.5 1.26 1.26 0 0 1 .343-.643l1.181-1.181a1.257 1.257 0 0 1 2.141.888c.001.332-.131.651-.366.887l-1.181 1.181a1.25 1.25 0 0 1-.888.368m2.536 2.536a1.26 1.26 0 0 1-.888-.368 1.26 1.26 0 0 1 0-1.775l1.181-1.181q.177-.176.407-.273c.23-.097.316-.096.481-.096a1.26 1.26 0 0 1 .889.367 1.26 1.26 0 0 1-.002 1.777L9.582 26.57a1.25 1.25 0 0 1-.888.368zm4.604.987-1.181 1.181a1.25 1.25 0 0 1-1.774-.002 1.26 1.26 0 0 1-.002-1.774l1.181-1.181a1.25 1.25 0 0 1 .888-.369 1.26 1.26 0 0 1 .889.367 1.25 1.25 0 0 1 .367.889 1.26 1.26 0 0 1-.369.888zm11.644-7.314a1.26 1.26 0 0 1-.774 1.159 1.25 1.25 0 0 1-1.368-.273l-3.854-3.854a.53.53 0 0 0-.381-.158.537.537 0 0 0-.539.539.54.54 0 0 0 .158.381l3.854 3.854a1.256 1.256 0 1 1-1.775 1.775L16.41 20.18a.538.538 0 0 0-.917.38c0 .142.057.279.157.38l3.854 3.854a1.26 1.26 0 0 1 .369.888 1.26 1.26 0 0 1-.367.888 1.26 1.26 0 0 1-1.369.271 1.3 1.3 0 0 1-.407-.273l-3.854-3.854a.53.53 0 0 0-.381-.158.537.537 0 0 0-.539.539.54.54 0 0 0 .158.381l3.854 3.854a1.24 1.24 0 0 1 .368.887 1.253 1.253 0 0 1-2.141.888l-.816-.816a2.33 2.33 0 0 0-2.18-3.574q.01-.107.01-.215a2.33 2.33 0 0 0-2.547-2.321 2.33 2.33 0 0 0-2.536-2.535A2.324 2.324 0 0 0 4.887 17.1a6.7 6.7 0 0 1-.095-1.484l.083-.079L11.012 9.4l.079-.083q.158-.008.32-.008a6.65 6.65 0 0 1 2.715.58l-3.402 3.802a1.67 1.67 0 0 0 .064 2.296 3.054 3.054 0 0 0 4.316 0l2.869-2.87 1.638 1.638q1.931 1.93 3.861 3.862l.002.001 1.103 1.103a1.25 1.25 0 0 1 .368.888zm.173-4.187a7 7 0 0 1-1.2 1.119l-3.546-3.546-2.018-2.018a.54.54 0 0 0-.76 0l-3.25 3.25a1.98 1.98 0 0 1-2.796 0 .593.593 0 0 1-.022-.818l4.254-4.755a2.74 2.74 0 0 1 2.041-.913h1.017q.191.366.483.659l6.137 6.137q.09.09.186.169-.24.375-.525.716zm3.383-1.645a1.616 1.616 0 0 1-2.282 0L20.08 8.642a1.616 1.616 0 0 1 0-2.282l.325-.325 8.331 8.507z"/>
    </symbol>
    <symbol id="icon-cart" viewBox="0 0 32 32">
      <path stroke-linecap="round" stroke-linejoin="round" stroke-width="2" d="M9.896 26.427a1.02 1.02 0 1 1 0 2.04 1.02 1.02 0 0 1 0-2.04m15.004 0a1.02 1.02 0 1 1 0 2.04 1.02 1.02 0 0 1 0-2.04M3.667 4.333l2.773.48L7.724 20.11a2.403 2.403 0 0 0 2.396 2.204h14.549a2.405 2.405 0 0 0 2.38-2.061l1.265-8.744a1.787 1.787 0 0 0-1.769-2.044H6.885m11.95 4.928h3.697"/>
    </symbol>
    <symbol id="icon-login" viewBox="0 0 32 32">
      <path stroke-width="2" d="M22.333 10.667a6.333 6.333 0 1 1-12.666 0 6.333 6.333 0 0 1 12.666 0"/>
      <path stroke-linecap="round" stroke-linejoin="round" stroke-width="2" d="M8 28v-3.333c0-1.666 2.999-3.333 8-3.333s8 1.667 8 3.333V28"/>
    </symbol>
  </defs>
</svg>
