<svg xmlns="http://www.w3.org/2000/svg" xmlns:xlink="http://www.w3.org/1999/xlink" aria-hidden="true" overflow="hidden" style="position:absolute;width:0;height:0">
  <defs>
    <symbol id="icon-arrowDown" viewBox="0 0 32 32">
      <path d="M24.391 10.391a1.333 1.333 0 1 1 1.886 1.885l-9.333 9.333a1.33 1.33 0 0 1-1.885 0l-9.333-9.333a1.332 1.332 0 1 1 1.885-1.885l8.391 8.391 8.391-8.391z"/>
    </symbol>
    <symbol id="icon-cart" viewBox="0 0 32 32">
      <path d="m9.915 27.44-.005-.007q-.005-.005-.007-.005l-.008-.001-.005.001-.007.004-.005.008-.001.006.001.008.004.007.007.004.007.001.008-.001.007-.005.005-.007.001-.007zm2.002.007a2.02 2.02 0 1 1-4.04.002 2.02 2.02 0 0 1 4.04-.002m13.002-.007-.005-.007q-.005-.005-.007-.005l-.008-.001-.007.001-.006.005-.005.007-.001.006.001.007.004.007.008.005.007.001.008-.001.008-.005.004-.007.001-.007zm2.001.007a2.021 2.021 0 0 1-4.04 0 2.02 2.02 0 0 1 4.04 0M2.681 4.163a1 1 0 0 1 1.156-.815l2.773.48.163.042c.366.129.629.463.663.859l.314 3.736h18.796a2.788 2.788 0 0 1 2.759 3.188l-1.266 8.745a3.406 3.406 0 0 1-3.37 2.918H10.12a3.4 3.4 0 0 1-3.349-2.796l-.043-.325-1.22-14.527-2.012-.348a1 1 0 0 1-.815-1.156zM8.72 20.027l.018.134a1.404 1.404 0 0 0 1.381 1.154h14.549c.697 0 1.29-.513 1.391-1.206l1.266-8.743a.788.788 0 0 0-.78-.901H7.917l.802 9.563z"/>
      <path d="M22.532 13.393a1 1 0 0 1 0 2h-3.698a1 1 0 0 1 0-2z"/>
    </symbol>
    <symbol id="icon-deal" viewBox="0 0 32 32">
      <path d="M33.368 10.671a.54.54 0 0 0-.76 0l-3.11 3.11-8.331-8.507 3.022-3.022a.53.53 0 0 0 .158-.381.537.537 0 0 0-.539-.539.54.54 0 0 0-.381.158l-4.108 4.108a2.68 2.68 0 0 0-.78 2.069h-.72a3.8 3.8 0 0 0-2.843 1.27l-.104.117a7.75 7.75 0 0 0-3.179-.815 2.69 2.69 0 0 0-.683-2.642L6.902 1.489a.537.537 0 0 0-.761.761l3.067 3.067-8.331 8.507-3.155-3.155a.537.537 0 0 0-.761.761l3.445 3.445q.069.119.189.189l.474.474a2.7 2.7 0 0 0 2.642.683q.02.55.118 1.091c-.25.115-.478.274-.673.469l-1.181 1.181a2.33 2.33 0 0 0 1.865 3.969 2.33 2.33 0 0 0 1.378 2.348 2.3 2.3 0 0 0 1.157.188 2.33 2.33 0 0 0 2.535 2.537 2.331 2.331 0 0 0 3.968 1.863l.777-.777.777.777a2.33 2.33 0 0 0 3.969-1.863q.107.01.215.01a2.33 2.33 0 0 0 2.321-2.546q.107.01.215.01a2.33 2.33 0 0 0 2.321-2.546q.107.01.215.01a2.331 2.331 0 0 0 1.649-3.979l-.652-.652a7.9 7.9 0 0 0 1.911-2.095 2.69 2.69 0 0 0 2.665-.677l4.108-4.108a.537.537 0 0 0 0-.76zM1.829 14.779l-.192-.192L9.968 6.08l.28.28a1.616 1.616 0 0 1 0 2.282l-6.137 6.137a1.616 1.616 0 0 1-2.282 0m1.794 7.088a1.26 1.26 0 0 1-1.159-.774 1.26 1.26 0 0 1 .272-1.368l1.181-1.181q.177-.176.407-.273c.23-.097.316-.096.481-.096a1.26 1.26 0 0 1 .889.367 1.25 1.25 0 0 1 .367.889 1.26 1.26 0 0 1-.369.888L4.511 21.5a1.25 1.25 0 0 1-.888.368zm2.536 2.535a1.254 1.254 0 0 1-1.23-1.5 1.26 1.26 0 0 1 .343-.643l1.181-1.181a1.257 1.257 0 0 1 2.141.888c.001.332-.131.651-.366.887l-1.181 1.181a1.25 1.25 0 0 1-.888.368m2.536 2.536a1.26 1.26 0 0 1-.888-.368 1.26 1.26 0 0 1 0-1.775l1.181-1.181q.177-.176.407-.273c.23-.097.316-.096.481-.096a1.26 1.26 0 0 1 .889.367 1.26 1.26 0 0 1-.002 1.777L9.582 26.57a1.25 1.25 0 0 1-.888.368zm4.604.987-1.181 1.181a1.25 1.25 0 0 1-1.774-.002 1.26 1.26 0 0 1-.002-1.774l1.181-1.181a1.25 1.25 0 0 1 .888-.369 1.26 1.26 0 0 1 .889.367 1.25 1.25 0 0 1 .367.889 1.26 1.26 0 0 1-.369.888zm11.644-7.314a1.26 1.26 0 0 1-.774 1.159 1.25 1.25 0 0 1-1.368-.273l-3.854-3.854a.53.53 0 0 0-.381-.158.537.537 0 0 0-.539.539.54.54 0 0 0 .158.381l3.854 3.854a1.256 1.256 0 1 1-1.775 1.775L16.41 20.18a.538.538 0 0 0-.917.38c0 .142.057.279.157.38l3.854 3.854a1.26 1.26 0 0 1 .369.888 1.26 1.26 0 0 1-.367.888 1.26 1.26 0 0 1-1.369.271 1.3 1.3 0 0 1-.407-.273l-3.854-3.854a.53.53 0 0 0-.381-.158.537.537 0 0 0-.539.539.54.54 0 0 0 .158.381l3.854 3.854a1.24 1.24 0 0 1 .368.887 1.253 1.253 0 0 1-2.141.888l-.816-.816a2.33 2.33 0 0 0-2.18-3.574q.01-.107.01-.215a2.33 2.33 0 0 0-2.547-2.321 2.33 2.33 0 0 0-2.536-2.535A2.324 2.324 0 0 0 4.887 17.1a6.7 6.7 0 0 1-.095-1.484l.083-.079L11.012 9.4l.079-.083q.158-.008.32-.008a6.65 6.65 0 0 1 2.715.58l-3.402 3.802a1.67 1.67 0 0 0 .064 2.296 3.054 3.054 0 0 0 4.316 0l2.869-2.87 1.638 1.638q1.931 1.93 3.861 3.862l.002.001 1.103 1.103a1.25 1.25 0 0 1 .368.888zm.173-4.187a7 7 0 0 1-1.2 1.119l-3.546-3.546-2.018-2.018a.54.54 0 0 0-.76 0l-3.25 3.25a1.98 1.98 0 0 1-2.796 0 .593.593 0 0 1-.022-.818l4.254-4.755a2.74 2.74 0 0 1 2.041-.913h1.017q.191.366.483.659l6.137 6.137q.09.09.186.169-.24.375-.525.716zm3.383-1.645a1.616 1.616 0 0 1-2.282 0L20.08 8.642a1.616 1.616 0 0 1 0-2.282l.325-.325 8.331 8.507z"/>
    </symbol>
    <symbol id="icon-login" viewBox="0 0 32 32">
      <path d="M21.333 10.667a5.333 5.333 0 1 0-10.666 0 5.333 5.333 0 0 0 10.666 0m2 0a7.333 7.333 0 1 1-14.666 0 7.333 7.333 0 0 1 14.666 0M23 28v-3.333c0-.207-.241-.792-1.538-1.381-1.21-.55-3.06-.952-5.462-.952s-4.252.402-5.462.952C9.241 23.876 9 24.461 9 24.667V28a1 1 0 0 1-2 0v-3.333c0-1.46 1.258-2.542 2.711-3.202 1.54-.7 3.69-1.131 6.289-1.131s4.749.432 6.289 1.131c1.452.66 2.711 1.742 2.711 3.202V28a1 1 0 0 1-1.995.103z"/>
    </symbol>
    <symbol id="icon-search" viewBox="0 0 32 32">
      <path d="M26.339 15.688c0-5.882-4.769-10.651-10.651-10.651S5.037 9.806 5.037 15.688s4.769 10.651 10.651 10.651 10.651-4.768 10.651-10.651m2.667 0c0 7.355-5.962 13.318-13.318 13.318S2.37 23.044 2.37 15.688 8.333 2.37 15.688 2.37s13.318 5.963 13.318 13.318"/>
      <path d="M23.08 23.706a1.334 1.334 0 0 1 1.885-.004l4.7 4.687a1.334 1.334 0 0 1-1.883 1.888l-4.698-4.686a1.333 1.333 0 0 1-.003-1.885z"/>
    </symbol>
  </defs>
</svg>
